<svg xmlns="http://www.w3.org/2000/svg" width="132" height="32" viewBox="0 0 132 32" role="img" aria-label="Basis" fill="none">
  
  <defs>
    <linearGradient id="basis-wfd" x1="16" y1="7" x2="16" y2="28" gradientUnits="userSpaceOnUse">
      <stop offset="0" stop-color="#2347D9" stop-opacity="0.62"></stop>
      <stop offset="1" stop-color="#2347D9" stop-opacity="1"></stop>
    </linearGradient>
  </defs>
  <rect x="8.5" y="7" width="3.2" height="18" rx="1.2" fill="url(#basis-wfd)"></rect>
  <path d="M11.7 7h6.4c2.7 0 4.6 1.7 4.6 4.2 0 2.5-1.9 4.1-4.6 4.1h-6.4V7z" fill="#2347D9" fill-opacity="0.62"></path>
  <path d="M11.7 15.3h7.1c2.9 0 4.9 1.8 4.9 4.4 0 2.6-2 4.3-4.9 4.3h-7.1v-8.7z" fill="#2347D9"></path>
  <rect x="13.4" y="9.4" width="6.2" height="2.4" rx="1.2" fill="#F8F7F4"></rect>
  <rect x="13.4" y="17.7" width="6.8" height="2.6" rx="1.3" fill="#F8F7F4"></rect>
  <rect x="7" y="26.4" width="18" height="2" rx="1" fill="#2347D9" fill-opacity="0.9"></rect>
  <text x="40" y="22" font-family="Inter Display, Inter, system-ui, sans-serif" font-size="22" font-weight="600" letter-spacing="-0.01em" fill="#0A1428">Basis</text>
</svg>